# xmcd
#
# Track frame offsets: 
#        182
#        12260
#        22725
#        30755
#        41635
#        51520
#        60532
#        67930
#        78822
#        88930
#        98337
#        107475
#        116790
#        126027
#        134317
#        146110
#        153720
#        162142
#        170322
#        182587
#        194227
#        206817
#        218330
#        230510
#        242312
#        253860
#        266017
#
# Disc length: 3673 seconds
#
# Revision: 2
# Processed by: cddbd v1.4PL0 Copyright (c) Steve Scherf et al.
# Submitted via: ExactAudioCopy v0.90b4
#
DISCID=6a0e571b
DTITLE=Gene Autry - Sing Cowboy Sing (The Gene Autry Collection) - Dis
DTITLE=c 1
DYEAR=1900
DGENRE=Country
TTITLE0=Back In The Saddle Again
TTITLE1=Dust
TTITLE2=Sing Me A Song Of The Saddle
TTITLE3=Tumbling Tumbleweeds
TTITLE4=The One Rose
TTITLE5=That Silver-Haired Daddy Of Mine
TTITLE6=Rhythm Of The Range
TTITLE7=Blueberry Hill
TTITLE8=El Rancho Grande
TTITLE9=Mellow Mountain Moon
TTITLE10=We Never Dream The Same Dream Twice
TTITLE11=When You And I Were Young Maggie
TTITLE12=Maria Elena
TTITLE13=Be Honest With Me
TTITLE14=Tears On My Pillow
TTITLE15=The Yellow Rose Of Texas
TTITLE16=Lonely River
TTITLE17=Tweedle-O-Twill
TTITLE18=At Mail Call Today
TTITLE19=Don't Live A Lie
TTITLE20=Don't Hang Around Me Anymore
TTITLE21=I'll Be Back
TTITLE22=Silver Spurs (On The Golden Stairs
TTITLE23=I Wish I Had Never Met Sunshine
TTITLE24=You Only Want Me When You're Lonely
TTITLE25=You're Not My Darlin' Anymore
TTITLE26=Oklahoma Hills
EXTD=ID3G:   2
EXTT0=
EXTT1=
EXTT2=
EXTT3=
EXTT4=
EXTT5=
EXTT6=
EXTT7=
EXTT8=
EXTT9=
EXTT10=
EXTT11=
EXTT12=
EXTT13=
EXTT14=
EXTT15=
EXTT16=
EXTT17=
EXTT18=
EXTT19=
EXTT20=
EXTT21=
EXTT22=
EXTT23=
EXTT24=
EXTT25=
EXTT26=
PLAYORDER=
